# xmcd
#
# Track frame offsets: 
#        150
#        13295
#        29283
#        48428
#        62090
#        78126
#        94358
#        106023
#        118982
#        130262
#        146415
#        160817
#        176670
#        185127
#        204858
#        222917
#        234373
#
# Disc length: 3442 seconds
#
# Revision: 0
# Processed by: cddbd v1.5.2PL0 Copyright (c) Steve Scherf et al.
# Submitted via: ExactAudioCopy v0.99pb5
#
DISCID=eb0d7011
DTITLE=Normaal - Halve Soul Helemoal Hóken
DYEAR=2012
DGENRE=Blues
TTITLE0=Mien missie
TTITLE1=As i-j de lat te hoge legt
TTITLE2=Ik doe't op mien manier
TTITLE3=Dat kump deur ow
TTITLE4=En dan kan ik niks
TTITLE5=Fats Domino medley
TTITLE6=Bemoei ow met ow eiges
TTITLE7=Kom terug bi-j mien
TTITLE8=Ik goa lopen
TTITLE9=Heb i-j dat ok?
TTITLE10=Eh eh, nee nee
TTITLE11=Heb Respect
TTITLE12=De kop der veur
TTITLE13=Media
TTITLE14=Donder op vuile klootzak
TTITLE15=Missing (Jo)link
TTITLE16=Zie, zo kan't ok
EXTD=
EXTT0=
EXTT1=
EXTT2=
EXTT3=
EXTT4=
EXTT5=
EXTT6=
EXTT7=
EXTT8=
EXTT9=
EXTT10=
EXTT11=
EXTT12=
EXTT13=
EXTT14=
EXTT15=
EXTT16=
PLAYORDER=
